<svg xmlns="http://www.w3.org/2000/svg"
    xmlns:xlink="http://www.w3.org/1999/xlink" viewBox="0 0 400 80">
    <defs>
        <style>
            .cls-1 { fill: none; }
            .cls-2 { clip-path: url(#clip-path); }
            .cls-3 { fill: #3273dc; }
            .cls-4 { fill: #fff; }
        </style>
        <clipPath id="clip-path">
            <rect class="cls-1" width="400" height="80"/>
        </clipPath>
    </defs>
    <g class="cls-2">
        <rect class="cls-3" width="400" height="80"/>
        <g>
            <path class="cls-4" d="M0,.08H12.89q6.57,0,10.19,4.73a17.68,17.68,0,0,1,3.23,10.94,22.15,22.15,0,0,1-1.91,9.32Q21,32.42,12.85,32.42H0Zm12,28.6a11.45,11.45,0,0,0,3.56-.47,7.86,7.86,0,0,0,4.08-3.3,13.75,13.75,0,0,0,1.83-5,20.11,20.11,0,0,0,.32-3.39q0-6-2.33-9.33T12,3.84H4.41V28.68Z"/>
            <path class="cls-4" d="M37.77.08h4.41V32.42H37.77Z"/>
            <path class="cls-4" d="M75.24,1Q80,3.54,81,9.87H76.72a7.92,7.92,0,0,0-3.21-5.16,10.82,10.82,0,0,0-6.13-1.62A9.52,9.52,0,0,0,60,6.46q-3,3.38-3,10a16.3,16.3,0,0,0,2.47,9.39c1.65,2.42,4.34,3.62,8.07,3.62A10.13,10.13,0,0,0,74.63,27q2.81-2.55,2.88-8.22H67.41V15.11H81.57V32.42H78.76L77.7,28.26a16.3,16.3,0,0,1-3.86,3.39,14.37,14.37,0,0,1-7.2,1.63A13.85,13.85,0,0,1,57,29.56q-4.44-4.66-4.43-12.82T56.85,3.82A13.65,13.65,0,0,1,67.49-.76,16.15,16.15,0,0,1,75.24,1Z"/>
            <path class="cls-4" d="M94.24.08h4.41V32.42H94.24Z"/>
            <path class="cls-4" d="M133.69.08V3.93H122.82V32.42h-4.41V3.93H107.54V.08Z"/>
            <path class="cls-4" d="M151.62.08h4.93l11.71,32.34h-4.79l-3.36-9.69H147.45L144,32.42h-4.48Zm7.25,19.09-5-14.29-5.16,14.29Z"/>
            <path class="cls-4" d="M176.7.08h4.37V28.57h16.18v3.85H176.7Z"/>
        </g>
        <g>
            <path class="cls-4" d="M-.25,41.52H2.43V57.6H12.48V41.52h2.68v38.9H12.48V62.23h-10V80.42H-.25Z"/>
            <path class="cls-4" d="M25.92,41.52v24a25.88,25.88,0,0,0,.81,7c.79,2.82,2.14,4.23,4,4.23,2.27,0,3.81-1.52,4.62-4.58a27.13,27.13,0,0,0,.66-6.7v-24H38.7V63.37a47.88,47.88,0,0,1-1,11q-1.78,7-6.76,7c-3.32,0-5.56-2.35-6.75-7a47.88,47.88,0,0,1-1-11V41.52Z"/>
            <path class="cls-4" d="M46.37,41.52h3.79l5.63,32.89,5.58-32.89h3.77v38.9H62.61v-23c0-.79,0-2.11,0-3.94s0-3.81,0-5.91L57.08,80.42H54.46L48.82,47.61V48.8c0,1,0,2.41,0,4.36s0,3.39,0,4.3v23H46.37Z"/>
            <path class="cls-4" d="M78.54,41.52h3l7.1,38.9h-2.9l-2-11.65H76L73.89,80.42H71.17Zm4.39,23-3-17.18L76.79,64.48Z"/>
            <path class="cls-4" d="M94.7,41.52h3.12L107.58,73V41.52h2.53v38.9h-3L97.23,49V80.42H94.7Z"/>
            <path class="cls-4" d="M118.68,41.52h2.67v38.9h-2.67Z"/>
            <path class="cls-4" d="M143.56,41.52v4.64H137V80.42h-2.68V46.16H127.7V41.52Z"/>
            <path class="cls-4" d="M150.28,41.52H153v38.9h-2.67Z"/>
            <path class="cls-4" d="M161.19,41.52h14.19v4.77H163.77V58.1H174.5v4.5H163.77V75.79h11.81v4.63H161.19Z"/>
            <path class="cls-4" d="M184.54,67.87a19.76,19.76,0,0,0,.75,5.37q1.28,3.87,4.48,3.87a4.36,4.36,0,0,0,2.62-.85q2.28-1.64,2.28-5.88a8,8,0,0,0-1-4.52,7.81,7.81,0,0,0-3.07-2.31l-2.56-1.19a9.07,9.07,0,0,1-3.56-2.57q-1.81-2.43-1.81-7.28a18.39,18.39,0,0,1,1.77-8.6c1.19-2.25,2.86-3.37,5-3.37a6.12,6.12,0,0,1,5.09,3c1.39,2,2.09,5.11,2.09,9.43h-2.49a17.26,17.26,0,0,0-.82-4.79c-.77-2-2.09-3-3.94-3a3.34,3.34,0,0,0-3.23,2,9.93,9.93,0,0,0-1,4.55,6.19,6.19,0,0,0,1.16,4.18,11.63,11.63,0,0,0,3.44,2.12l2.66,1.25a7.12,7.12,0,0,1,3,2.46q1.8,2.73,1.8,7.92c0,4.3-.76,7.38-2.3,9.24a6.83,6.83,0,0,1-5.36,2.78q-3.56,0-5.57-3.71t-2-10Z"/>
        </g>
        <g>
            <path class="cls-4" d="M203-.19h10.92V71h40.46v9.63H203Z"/>
            <path class="cls-4" d="M287.89-.19h12.34L329.5,80.67h-12l-8.42-24.22H277.47l-8.74,24.22h-11.2ZM306,47.53,293.59,11.81l-12.9,35.72Z"/>
            <path class="cls-4" d="M338-.19h34.87q14.25,0,20.28,8.48a19.52,19.52,0,0,1,3.54,11.56q0,7.65-4.34,12.55a21.23,21.23,0,0,1-6.48,4.73,27.42,27.42,0,0,1,9.28,5.34q5.43,5.28,5.43,14.59a22.46,22.46,0,0,1-4.91,14.14q-7.35,9.47-23.37,9.47H338ZM368.74,34q7,0,10.87-1.92,6.11-3,6.1-10.9t-6.49-10.68Q375.56,9,368.35,9H348.66V34Zm3.69,37.32q10.14,0,14.46-5.83a14.63,14.63,0,0,0,2.72-8.92q0-8.81-7.92-12a30.4,30.4,0,0,0-11.14-1.7H348.66V71.31Z"/>
        </g>
    </g>
</svg>
