<svg class="logo-gretel" xmlns="http://www.w3.org/2000/svg" xml:space="preserve" version="1.1" y="0px" x="0px" xmlns:xlink="http://www.w3.org/1999/xlink" viewBox="0 0 272 335">
    <circle fill="#A2CC3E" cy="136" cx="136" r="136" />
    <path fill="#7E6748" d="m124.99 253.58s-0.535-32.886-11.246-38.519c-10.711-5.632-23.295-3.219-28.649-2.682-5.356 0.537-21.957 3.22-31.06 8.584 0 0-1.606-3.755 1.071-4.56 0 0-10.443 1.877-22.759 0.268v-1.878s6.694 0.804 9.907-0.536c0 0-7.23-6.437-7.497-8.583 0 0 2.946 0.537 6.694 2.414s15.53 5.901 28.917 1.609c0 0-4.017-3.487 1.339-2.682 5.355 0.804 8.301 2.414 19.546 0.269 11.245-2.146 16.6-3.755 24.098-1.61s9.678 5.364 9.678 5.364 6.656-16.897-12.622-26.822c-19.278-9.925-38.825-11.266-48.732-21.458s-21.152-26.822-32.666-31.65c-11.513-4.828-24.901 0.268-26.24-2.682v-1.877s28.381-4.292 36.414 2.95c0 0 7.23-9.12-1.874-23.335l-0.536-3.219h2.41s5.623 7.242 6.159 19.58c0.535 12.338 1.606 16.361 8.032 23.603s19.814 26.823 36.682 20.922c0 0-3.748-10.461-16.868-19.849h3.748s3.749 4.292 10.175 4.292c0 0 3.748 16.63 20.884 23.067 17.135 6.437 16.868 1.61 18.475-1.609 1.606-3.219 6.693-23.336-8.836-41.306-15.53-17.971-13.924-16.629-35.077-22.799-21.152-6.169-29.452-5.097-30.791-11.802h1.874s4.552 2.682 7.229 2.682l-4.284-9.656h2.41s6.694 12.607 29.452 13.143l-10.447-13.133-0.268-4.023h2.142s6.693 8.851 15.529 14.484 16.333 10.729 20.35 15.557c4.016 4.828 5.891 9.924 9.104 10.192s0.267-24.139-6.962-34.332-42.037-38.624-53.55-39.161c-11.514-0.536-12.05 2.146-12.317 1.342-0.268-0.805 3.213-5.633-3.748-4.023-6.962 1.609-8.032 4.023-9.371 1.609s4.819-4.292 10.174-5.365 17.939 1.877 19.01 2.414l-2.436-5.633h2.436s10.175 9.924 17.94 13.948c7.764 4.023 19.813 9.388 23.829 13.679 4.016 4.292 10.175 11.266 12.852 9.924 2.678-1.341-6.961-15.021-14.994-20.385l-0.268-1.341 3.749-0.537 0.535-6.437h2.141s1.339 8.851 6.426 14.752c5.088 5.901 7.498 12.07 11.782 8.315s15.529-15.021 17.404-27.895l1.874 0.268v2.95s12.049-6.974 16.601-4.828c0 0-24.634 17.971-29.185 29.236-4.552 11.265-7.765 24.408-5.355 24.944s14.459-17.166 14.459-17.166l2.677-0.268s0.268 1.341 0.268 2.146-14.19 18.776-14.19 28.163c0 9.388 0.535 26.554 3.48 30.041 2.946 3.487 4.82 3.218 8.836-4.56s8.835-15.02 14.726-21.189 14.727-16.093 19.814-26.554c5.087-10.46 14.458-32.187 14.458-32.187l2.41 0.536s-6.962 17.703-3.213 19.312l3.749 1.609v2.414s-12.05 5.901-16.334 12.606c-4.283 6.706-9.104 14.216-5.623 13.411 3.481-0.804 16.065-9.924 24.098-12.338 8.032-2.414 15.529-3.487 20.081-9.656l1.339 1.609v1.878l-3.481 3.487s5.891 1.341 12.852 0.268 0 2.414 0 2.414-26.776 2.951-39.895 9.925c-13.12 6.973-25.973 14.216-33.47 26.554-7.496 12.338-14.191 28.219-13.655 34.495 0.536 6.275 3.213 5.794 9.372 0 6.158-5.795 12.584-6.331 15.797-9.818s5.623-18.507 9.103-20.921c3.481-2.414 4.552-1.878 4.552-1.878s0.535 0.805-0.268 2.414c-0.803 1.609-6.694 9.924-6.426 13.679s0.268 5.633 5.623 3.219c5.356-2.414 21.153-8.583 21.153-8.583s-1.072 3.487 1.874 4.023c2.945 0.536 19.813-6.169 27.578-9.387 7.765-3.219 18.208-10.997 22.224-20.653l4.552 1.878s-10.442 11.265-14.459 16.362c-4.016 5.096-1.338 3.755 3.213 2.95s13.655-5.632 13.655-5.632l1.406 2.548s-14.057 7.242-19.346 8.986c-2.303 0.759 2.945 2.682 1.339 4.023-1.607 1.341-2.41-2.951-25.705 0.805-23.294 3.755-51.141 15.613-45.785 15.987 5.355 0.374 19.814-3.917 19.814-3.917s2.41 0.593 0.268 3.917c-2.143 3.325 2.678 0.642 1.339 3.592-1.339 2.951-8.836-2.414-13.655-1.877-4.82 0.536-24.099 0.804-34.006 18.507s-1.339 38.623-0.803 49.62 1.758 31.576 3.749 54.449c1.991 22.872 20.862 38.017 20.862 38.017-25.748 8.046-50.24 8.002-77.462 0 1.168-0.308 19.891-16.148 22.628-39.305 2.57-17.47 2.46-16.26 3.98-36.12z"/>
</svg>
