<?xml version="1.0" encoding="UTF-8" standalone="no"?>
<svg xmlns:dc="http://purl.org/dc/elements/1.1/"
    xmlns:cc="http://creativecommons.org/ns#"
    xmlns:rdf="http://www.w3.org/1999/02/22-rdf-syntax-ns#"
    xmlns:svg="http://www.w3.org/2000/svg"
    xmlns="http://www.w3.org/2000/svg"
    xmlns:sodipodi="http://sodipodi.sourceforge.net/DTD/sodipodi-0.dtd"
    xmlns:inkscape="http://www.inkscape.org/namespaces/inkscape" id="svg3940" version="1.1" inkscape:version="0.92.2 2405546, 2018-03-11" xml:space="preserve" width="269.33786" height="67.634499" viewBox="0 0 269.33786 67.634499" inkscape:export-xdpi="113.55152" inkscape:export-ydpi="113.55152">
    <metadata id="metadata3946">
        <rdf:RDF>
            <cc:Work rdf:about="">
                <dc:format>image/svg+xml</dc:format>
                <dc:type rdf:resource="http://purl.org/dc/dcmitype/StillImage" />
                <dc:title></dc:title>
            </cc:Work>
        </rdf:RDF>
    </metadata>
    <defs id="defs3944">
        <clipPath clipPathUnits="userSpaceOnUse" id="clipPath3958">
            <path d="m 673.137,883.871 5.109,6.547 8.664,1.055 6.531,-5.137 43.207,0 6.551,5.137 8.637,-1.055 5.133,-6.535 41.961,-10.348 7.574,3.422 8.141,-3.098 3.414,-7.586 38.214,-20.043 8.176,1.489 7.156,-4.926 1.5,-8.203 32.36,-28.633 8.281,-0.527 5.762,-6.504 -0.488,-8.301 24.511,-35.508 7.938,-2.48 4.062,-7.715 -2.468,-7.93 15.32,-40.41 7.129,-4.297 2.07,-8.457 -4.285,-7.109 5.183,-42.891 5.879,-5.879 0,-8.73 -5.879,-5.86 -5.183,-42.851 4.305,-7.11 -2.071,-8.476 -7.129,-4.277 -15.32,-40.411 2.469,-7.929 -4.063,-7.735 -7.918,-2.461 -24.55,-35.546 0.488,-8.321 -5.762,-6.504 -8.281,-0.488 -32.317,-28.633 -1.503,-8.183 -7.149,-4.961 -8.183,1.523 -38.266,-20.078 -3.402,-7.598 -8.141,-3.086 -7.582,3.418 -41.91,-10.351 -5.125,-6.543 -8.649,-1.035 -6.535,5.136 -43.219,0 -6.535,-5.136 -8.648,1.035 -5.121,6.543 -41.965,10.351 -7.57,-3.418 -8.141,3.086 -3.426,7.598 -38.211,20.039 -8.176,-1.504 -7.171,4.961 -1.489,8.184 -32.359,28.652 -8.285,0.488 -5.782,6.504 0.493,8.321 -24.512,35.488 -7.941,2.48 -4.043,7.715 2.468,7.949 -15.328,40.41 -7.109,4.278 -2.09,8.476 4.297,7.09 -5.207,42.91 -5.875,5.86 0,8.73 5.875,5.879 5.199,42.832 -4.305,7.129 2.09,8.457 7.113,4.297 15.321,40.41 -2.477,7.93 4.047,7.715 7.938,2.48 24.55,35.547 -0.504,8.301 5.782,6.504 8.285,0.527 32.316,28.613 1.489,8.184 7.175,4.945 8.172,-1.508 38.266,20.082 3.414,7.586 8.141,3.098 7.57,-3.422 41.922,10.336 z" id="path3960" inkscape:connector-curvature="0" />
        </clipPath>
        <clipPath clipPathUnits="userSpaceOnUse" id="clipPath4076">
            <path d="m 715.074,354.258 c 148.75,0 269.324,120.586 269.324,269.336 0,148.73 -120.574,269.34 -269.324,269.34 -148.761,0 -269.347,-120.61 -269.347,-269.34 0,-148.75 120.586,-269.336 269.347,-269.336 z" id="path4078" inkscape:connector-curvature="0" />
        </clipPath>
        <clipPath clipPathUnits="userSpaceOnUse" id="clipPath4150">
            <path d="m 715.074,354.258 c 148.75,0 269.324,120.586 269.324,269.336 0,148.73 -120.574,269.34 -269.324,269.34 -148.761,0 -269.347,-120.61 -269.347,-269.34 0,-148.75 120.586,-269.336 269.347,-269.336 z" id="path4152" inkscape:connector-curvature="0" />
        </clipPath>
        <clipPath clipPathUnits="userSpaceOnUse" id="clipPath4156">
            <path d="m 807.465,368.184 -66.598,150.8 11.141,-164.492" id="path4158" inkscape:connector-curvature="0" />
        </clipPath>
        <clipPath clipPathUnits="userSpaceOnUse" id="clipPath4166">
            <path d="m 715.074,354.258 c 148.75,0 269.324,120.586 269.324,269.336 0,148.73 -120.574,269.34 -269.324,269.34 -148.761,0 -269.347,-120.61 -269.347,-269.34 0,-148.75 120.586,-269.336 269.347,-269.336 z" id="path4168" inkscape:connector-curvature="0" />
        </clipPath>
    </defs>
    <sodipodi:namedview pagecolor="#ffffff" bordercolor="#666666" borderopacity="1" objecttolerance="10" gridtolerance="10" guidetolerance="10" inkscape:pageopacity="0" inkscape:pageshadow="2" inkscape:window-width="2560" inkscape:window-height="1315" id="namedview3942" showgrid="false" inkscape:zoom="4.6937954" inkscape:cx="127.34134" inkscape:cy="35.542748" inkscape:window-x="0" inkscape:window-y="1" inkscape:window-maximized="1" inkscape:current-layer="g3948" fit-margin-top="0.2" fit-margin-left="0.2" fit-margin-right="0.1" fit-margin-bottom="0.1" />
    <g id="g3948" inkscape:groupmode="layer" inkscape:label="ink_ext_XXXXXX" transform="matrix(1.25,0,0,-1.25,-55.515875,111.81675)">
        <path inkscape:connector-curvature="0" id="path3952" style="fill:#fcd205;fill-opacity:1;fill-rule:nonzero;stroke:none" d="m 67.3137,88.3871 0.5109,0.6547 0.8664,0.1055 0.6531,-0.5137 4.3207,0 0.6551,0.5137 0.8637,-0.1055 0.5133,-0.6535 4.1961,-1.0348 0.7574,0.3422 0.8141,-0.3098 0.3414,-0.7586 3.8214,-2.0043 0.8176,0.1489 0.7156,-0.4926 0.15,-0.8203 3.236,-2.8633 0.8281,-0.0527 0.5762,-0.6504 -0.0488,-0.8301 2.4511,-3.5508 0.7938,-0.248 0.4062,-0.7715 -0.2468,-0.793 1.532,-4.041 0.7129,-0.4297 0.207,-0.8457 -0.4285,-0.7109 0.5183,-4.2891 0.5879,-0.5879 0,-0.873 -0.5879,-0.586 -0.5183,-4.2851 0.4305,-0.711 -0.2071,-0.8476 -0.7129,-0.4277 -1.532,-4.0411 0.2469,-0.7929 -0.4063,-0.7735 -0.7918,-0.2461 -2.455,-3.5546 0.0488,-0.8321 -0.5762,-0.6504 -0.8281,-0.0488 -3.2317,-2.8633 -0.1503,-0.8183 -0.7149,-0.4961 -0.8183,0.1523 -3.8266,-2.0078 -0.3402,-0.7598 -0.8141,-0.3086 -0.7582,0.3418 -4.191,-1.0351 -0.5125,-0.6543 -0.8649,-0.1035 -0.6535,0.5136 -4.3219,0 -0.6535,-0.5136 -0.8648,0.1035 -0.5121,0.6543 -4.1965,1.0351 -0.757,-0.3418 -0.8141,0.3086 -0.3426,0.7598 -3.8211,2.0039 -0.8176,-0.1504 -0.7171,0.4961 -0.1489,0.8184 -3.2359,2.8652 -0.8285,0.0488 -0.5782,0.6504 0.0493,0.8321 -2.4512,3.5488 -0.7941,0.248 -0.4043,0.7715 0.2468,0.7949 -1.5328,4.041 -0.7109,0.4278 -0.209,0.8476 0.4297,0.709 -0.5207,4.291 -0.5875,0.586 0,0.873 0.5875,0.5879 0.5199,4.2832 -0.4305,0.7129 0.209,0.8457 0.7113,0.4297 1.5321,4.041 -0.2477,0.793 0.4047,0.7715 0.7938,0.248 2.455,3.5547 -0.0504,0.8301 0.5782,0.6504 0.8285,0.0527 3.2316,2.8613 0.1489,0.8184 0.7175,0.4945 0.8172,-0.1508 3.8266,2.0082 0.3414,0.7586 0.8141,0.3098 0.757,-0.3422 4.1922,1.0336" />
        <g id="g3954" transform="scale(0.1,0.1)">
            <g clip-path="url(#clipPath3958)" id="g3956">
                <path inkscape:connector-curvature="0" id="path3962" style="fill:#ffffff;fill-opacity:1;fill-rule:nonzero;stroke:none" d="m 761.527,858.406 c 2.106,-1.269 5.606,-3.105 8.27,-3.746 3.031,-0.73 6.371,-0.926 7.238,2.606 0.848,3.461 -3.465,4.851 -7.527,7.23 -4.074,2.379 -7.953,5.738 -6.188,12.992 1.989,8.063 11.016,9.821 18.106,8.082 4.172,-1.035 7.836,-2.945 11.316,-5.359 l -4.445,-6.246 c -2.274,1.527 -5.531,3.012 -7.527,3.504 -4.665,1.14 -6.809,-0.117 -7.387,-2.504 -0.363,-1.516 0.394,-3.082 4.508,-5.063 9.058,-4.511 10.714,-8.992 9.433,-14.254 -2.269,-9.242 -10.554,-10.96 -18.89,-8.914 -3.899,0.946 -7.75,2.821 -11.133,4.969 l 4.226,6.703" />
                <path inkscape:connector-curvature="0" id="path3964" style="fill:none;stroke:#ffffff;stroke-width:4;stroke-linecap:butt;stroke-linejoin:miter;stroke-miterlimit:4;stroke-dasharray:none;stroke-opacity:1" d="m 761.527,858.406 c 2.106,-1.269 5.606,-3.105 8.27,-3.746 3.031,-0.73 6.371,-0.926 7.238,2.606 0.848,3.461 -3.465,4.851 -7.527,7.23 -4.074,2.379 -7.953,5.738 -6.188,12.992 1.989,8.063 11.016,9.821 18.106,8.082 4.172,-1.035 7.836,-2.945 11.316,-5.359 l -4.445,-6.246 c -2.274,1.527 -5.531,3.012 -7.527,3.504 -4.665,1.14 -6.809,-0.117 -7.387,-2.504 -0.363,-1.516 0.394,-3.082 4.508,-5.063 9.058,-4.511 10.714,-8.992 9.433,-14.254 -2.269,-9.242 -10.554,-10.96 -18.89,-8.914 -3.899,0.946 -7.75,2.821 -11.133,4.969 l 4.226,6.703 z" />
                <path inkscape:connector-curvature="0" id="path3966" style="fill:#ffffff;fill-opacity:1;fill-rule:nonzero;stroke:none" d="m 825.496,834.043 c 5.125,-2.695 11.102,-1.406 15.027,6.074 3.934,7.524 1.606,13.153 -3.527,15.844 -5.078,2.672 -11.027,1.398 -14.965,-6.113 -3.941,-7.504 -1.621,-13.149 3.465,-15.805 z m 15.285,28.992 c 11.598,-6.09 14.129,-17.801 8.938,-27.722 -5.223,-9.942 -16.305,-14.493 -27.903,-8.418 -11.648,6.113 -14.187,17.832 -8.98,27.765 5.211,9.926 16.301,14.481 27.945,8.375" />
                <path inkscape:connector-curvature="0" id="path3968" style="fill:none;stroke:#ffffff;stroke-width:4;stroke-linecap:butt;stroke-linejoin:miter;stroke-miterlimit:4;stroke-dasharray:none;stroke-opacity:1" d="m 825.496,834.043 c 5.125,-2.695 11.102,-1.406 15.027,6.074 3.934,7.524 1.606,13.153 -3.527,15.844 -5.078,2.672 -11.027,1.398 -14.965,-6.113 -3.941,-7.504 -1.621,-13.149 3.465,-15.805 z m 15.285,28.992 c 11.598,-6.09 14.129,-17.801 8.938,-27.722 -5.223,-9.942 -16.305,-14.493 -27.903,-8.418 -11.648,6.113 -14.187,17.832 -8.98,27.765 5.211,9.926 16.301,14.481 27.945,8.375 z" />
                <path inkscape:connector-curvature="0" id="path3970" style="fill:#ffffff;fill-opacity:1;fill-rule:nonzero;stroke:none" d="m 885.398,834.18 -25.054,-30.723 c 6.574,-5.332 12.844,-10.977 18.804,-16.992 l 6.063,6.015 c -3.91,3.946 -7.981,7.754 -12.168,11.446 l 20.398,23.457" />
                <path inkscape:connector-curvature="0" id="path3972" style="fill:none;stroke:#ffffff;stroke-width:4;stroke-linecap:butt;stroke-linejoin:miter;stroke-miterlimit:4;stroke-dasharray:none;stroke-opacity:1" d="m 885.398,834.18 -25.054,-30.723 c 6.574,-5.332 12.844,-10.977 18.804,-16.992 l 6.063,6.015 c -3.91,3.946 -7.981,7.754 -12.168,11.446 l 20.398,23.457" />
                <path inkscape:connector-curvature="0" id="path3974" style="fill:#ffffff;fill-opacity:1;fill-rule:nonzero;stroke:none" d="m 970.18,714.609 -37.5,-13.32 c -0.996,2.813 -2.137,5.781 -3.289,8.594 l 37.019,14.785" />
                <path inkscape:connector-curvature="0" id="path3976" style="fill:none;stroke:#ffffff;stroke-width:4;stroke-linecap:butt;stroke-linejoin:miter;stroke-miterlimit:4;stroke-dasharray:none;stroke-opacity:1" d="m 970.18,714.609 -37.5,-13.32 c -0.996,2.813 -2.137,5.781 -3.289,8.594 l 37.019,14.785" />
                <path inkscape:connector-curvature="0" id="path3978" style="fill:#ffffff;fill-opacity:1;fill-rule:nonzero;stroke:none" d="m 984.996,645.898 -30.664,6.192 -0.019,0.098 28.378,12.929 -1.796,10.41 -37.071,-19.336 c 0.535,-3.613 0.926,-7.187 1.278,-10.8 l 40.5,-9.532" />
                <path inkscape:connector-curvature="0" id="path3980" style="fill:none;stroke:#ffffff;stroke-width:4;stroke-linecap:butt;stroke-linejoin:miter;stroke-miterlimit:4;stroke-dasharray:none;stroke-opacity:1" d="m 984.996,645.898 -30.664,6.192 -0.019,0.098 28.378,12.929 -1.796,10.41 -37.071,-19.336 c 0.535,-3.613 0.926,-7.187 1.278,-10.8 l 40.5,-9.532" />
                <path inkscape:connector-curvature="0" id="path3982" style="fill:#ffffff;fill-opacity:1;fill-rule:nonzero;stroke:none" d="m 953.766,605.684 c -1.016,-2.246 -2.395,-5.938 -2.715,-8.653 -0.371,-3.105 -0.176,-6.445 3.437,-6.875 3.543,-0.429 4.414,4.024 6.27,8.36 1.883,4.297 4.734,8.574 12.176,7.675 8.234,-0.976 11.066,-9.746 10.187,-16.992 -0.508,-4.297 -1.992,-8.125 -3.945,-11.894 l -6.758,3.672 c 1.25,2.421 2.344,5.839 2.578,7.91 0.567,4.746 -0.949,6.738 -3.359,7.011 -1.555,0.196 -3.02,-0.742 -4.504,-5.097 -3.399,-9.512 -7.637,-11.699 -12.996,-11.055 -9.453,1.133 -12.16,9.16 -11.145,17.676 0.481,3.984 1.856,8.027 3.594,11.621 l 7.18,-3.359" />
                <path inkscape:connector-curvature="0" id="path3984" style="fill:none;stroke:#ffffff;stroke-width:4;stroke-linecap:butt;stroke-linejoin:miter;stroke-miterlimit:4;stroke-dasharray:none;stroke-opacity:1" d="m 953.766,605.684 c -1.016,-2.246 -2.395,-5.938 -2.715,-8.653 -0.371,-3.105 -0.176,-6.445 3.437,-6.875 3.543,-0.429 4.414,4.024 6.27,8.36 1.883,4.297 4.734,8.574 12.176,7.675 8.234,-0.976 11.066,-9.746 10.187,-16.992 -0.508,-4.297 -1.992,-8.125 -3.945,-11.894 l -6.758,3.672 c 1.25,2.421 2.344,5.839 2.578,7.91 0.567,4.746 -0.949,6.738 -3.359,7.011 -1.555,0.196 -3.02,-0.742 -4.504,-5.097 -3.399,-9.512 -7.637,-11.699 -12.996,-11.055 -9.453,1.133 -12.16,9.16 -11.145,17.676 0.481,3.984 1.856,8.027 3.594,11.621 l 7.18,-3.359 z" />
                <path inkscape:connector-curvature="0" id="path3986" style="fill:#ffffff;fill-opacity:1;fill-rule:nonzero;stroke:none" d="m 962.379,513.047 -9.172,4.082 c 1.34,2.969 2.637,6.035 3.848,9.101 l -27.606,11.153 c 1.133,2.812 2.235,5.801 3.231,8.613 l 28.078,-10.058 c 1.074,3.046 2.129,6.113 3.094,9.179 l 9.503,-2.988" />
                <path inkscape:connector-curvature="0" id="path3988" style="fill:none;stroke:#ffffff;stroke-width:4;stroke-linecap:butt;stroke-linejoin:miter;stroke-miterlimit:4;stroke-dasharray:none;stroke-opacity:1" d="m 962.379,513.047 -9.172,4.082 c 1.34,2.969 2.637,6.035 3.848,9.101 l -27.606,11.153 c 1.133,2.812 2.235,5.801 3.231,8.613 l 28.078,-10.058 c 1.074,3.046 2.129,6.113 3.094,9.179 l 9.503,-2.988" />
                <path inkscape:connector-curvature="0" id="path3990" style="fill:#ffffff;fill-opacity:1;fill-rule:nonzero;stroke:none" d="m 934.789,465.273 -32.234,23.321 c 1.746,2.441 3.554,5.097 5.203,7.597 l 33.183,-22.07" />
                <path inkscape:connector-curvature="0" id="path3992" style="fill:none;stroke:#ffffff;stroke-width:4;stroke-linecap:butt;stroke-linejoin:miter;stroke-miterlimit:4;stroke-dasharray:none;stroke-opacity:1" d="m 934.789,465.273 -32.234,23.321 c 1.746,2.441 3.554,5.097 5.203,7.597 l 33.183,-22.07" />
                <path inkscape:connector-curvature="0" id="path3994" style="fill:#ffffff;fill-opacity:1;fill-rule:nonzero;stroke:none" d="m 882.613,410.801 -6.207,7.812 c 2.578,2.051 5.137,4.121 7.649,6.27 l -19.266,22.734 c 2.313,1.953 4.668,4.082 6.883,6.113 l 20.152,-21.953 c 2.399,2.188 4.739,4.414 7,6.7 l 7.031,-7.11" />
                <path inkscape:connector-curvature="0" id="path3996" style="fill:none;stroke:#ffffff;stroke-width:4;stroke-linecap:butt;stroke-linejoin:miter;stroke-miterlimit:4;stroke-dasharray:none;stroke-opacity:1" d="m 882.613,410.801 -6.207,7.812 c 2.578,2.051 5.137,4.121 7.649,6.27 l -19.266,22.734 c 2.313,1.953 4.668,4.082 6.883,6.113 l 20.152,-21.953 c 2.399,2.188 4.739,4.414 7,6.7 l 7.031,-7.11" />
                <path inkscape:connector-curvature="0" id="path3998" style="fill:#ffffff;fill-opacity:1;fill-rule:nonzero;stroke:none" d="m 836.063,381.211 -17.766,35.703 c 2.699,1.367 5.504,2.832 8.141,4.316 l 19.152,-34.98" />
                <path inkscape:connector-curvature="0" id="path4000" style="fill:none;stroke:#ffffff;stroke-width:4;stroke-linecap:butt;stroke-linejoin:miter;stroke-miterlimit:4;stroke-dasharray:none;stroke-opacity:1" d="m 836.063,381.211 -17.766,35.703 c 2.699,1.367 5.504,2.832 8.141,4.316 l 19.152,-34.98" />
                <path inkscape:connector-curvature="0" id="path4002" style="fill:#ffffff;fill-opacity:1;fill-rule:nonzero;stroke:none" d="m 760.293,356.504 -6.871,39.18 c 7.793,1.308 15.527,3.027 23.156,5.156 l 2.934,-10.078 c 4.148,1.152 8.261,2.441 12.347,3.828 l 2.024,7.773 5.988,-13.457 -7.836,-25.039 -31.742,-7.363" />
                <path inkscape:connector-curvature="0" id="path4004" style="fill:none;stroke:#ffffff;stroke-width:4;stroke-linecap:butt;stroke-linejoin:miter;stroke-miterlimit:4;stroke-dasharray:none;stroke-opacity:1" d="m 760.293,356.504 -6.871,39.18 c 7.793,1.308 15.527,3.027 23.156,5.156 l 2.934,-10.078 c 4.148,1.152 8.261,2.441 12.347,3.828 l 2.024,7.773 5.988,-13.457 -7.836,-25.039 -31.742,-7.363 z" />
                <path inkscape:connector-curvature="0" id="path4006" style="fill:#ffffff;fill-opacity:1;fill-rule:nonzero;stroke:none" d="m 645.215,361.875 10.348,38.477 c 2.917,-0.782 6.023,-1.504 8.98,-2.168 l -8.836,-38.907" />
                <path inkscape:connector-curvature="0" id="path4008" style="fill:none;stroke:#ffffff;stroke-width:4;stroke-linecap:butt;stroke-linejoin:miter;stroke-miterlimit:4;stroke-dasharray:none;stroke-opacity:1" d="m 645.215,361.875 10.348,38.477 c 2.917,-0.782 6.023,-1.504 8.98,-2.168 l -8.836,-38.907" />
                <path inkscape:connector-curvature="0" id="path4010" style="fill:#ffffff;fill-opacity:1;fill-rule:nonzero;stroke:none" d="m 600.242,378.242 16.992,35.977 c -7.664,3.594 -15.121,7.578 -22.351,11.972 l -4.434,-7.304 c 4.75,-2.891 9.61,-5.606 14.563,-8.164 L 590.664,382.93" />
                <path inkscape:connector-curvature="0" id="path4012" style="fill:none;stroke:#ffffff;stroke-width:4;stroke-linecap:butt;stroke-linejoin:miter;stroke-miterlimit:4;stroke-dasharray:none;stroke-opacity:1" d="m 600.242,378.242 16.992,35.977 c -7.664,3.594 -15.121,7.578 -22.351,11.972 l -4.434,-7.304 c 4.75,-2.891 9.61,-5.606 14.563,-8.164 L 590.664,382.93" />
                <path inkscape:connector-curvature="0" id="path4014" style="fill:#ffffff;fill-opacity:1;fill-rule:nonzero;stroke:none" d="m 544.898,412.91 25.043,30.82 c -6.578,5.313 -12.867,10.977 -18.828,16.993 l -6.054,-6.035 c 3.925,-3.965 7.988,-7.754 12.175,-11.426 l -20.453,-23.379" />
                <path inkscape:connector-curvature="0" id="path4016" style="fill:none;stroke:#ffffff;stroke-width:4;stroke-linecap:butt;stroke-linejoin:miter;stroke-miterlimit:4;stroke-dasharray:none;stroke-opacity:1" d="m 544.898,412.91 25.043,30.82 c -6.578,5.313 -12.867,10.977 -18.828,16.993 l -6.054,-6.035 c 3.925,-3.965 7.988,-7.754 12.175,-11.426 l -20.453,-23.379" />
                <path inkscape:connector-curvature="0" id="path4018" style="fill:#ffffff;fill-opacity:1;fill-rule:nonzero;stroke:none" d="m 481.332,486.758 40.285,10.43 c 1.977,-3.028 4.028,-6.016 6.153,-8.946 l -23.79,-34.297 -6.476,8.321 19.117,24.609 -0.058,0.078 -29.985,-8.808" />
                <path inkscape:connector-curvature="0" id="path4020" style="fill:none;stroke:#ffffff;stroke-width:4;stroke-linecap:butt;stroke-linejoin:miter;stroke-miterlimit:4;stroke-dasharray:none;stroke-opacity:1" d="m 481.332,486.758 40.285,10.43 c 1.977,-3.028 4.028,-6.016 6.153,-8.946 l -23.79,-34.297 -6.476,8.321 19.117,24.609 -0.058,0.078 -29.985,-8.808" />
                <path inkscape:connector-curvature="0" id="path4022" style="fill:#ffffff;fill-opacity:1;fill-rule:nonzero;stroke:none" d="m 495.469,528.281 c -0.153,2.461 -0.641,6.407 -1.617,8.946 -1.114,2.929 -2.86,5.781 -6.239,4.492 -3.34,-1.27 -2.039,-5.625 -1.679,-10.313 0.359,-4.707 -0.196,-9.804 -7.172,-12.461 -7.762,-2.968 -14.336,3.477 -16.946,10.274 -1.539,4.023 -2.027,8.125 -2.031,12.383 l 7.68,-0.137 c 0.031,-2.715 0.656,-6.231 1.398,-8.184 1.7,-4.472 3.957,-5.527 6.25,-4.629 1.453,0.547 2.305,2.051 1.602,6.582 -1.438,10.02 1.305,13.907 6.359,15.84 8.906,3.399 15.008,-2.422 18.078,-10.449 1.438,-3.75 2.09,-7.969 2.25,-11.973 l -7.933,-0.371" />
                <path inkscape:connector-curvature="0" id="path4024" style="fill:none;stroke:#ffffff;stroke-width:4;stroke-linecap:butt;stroke-linejoin:miter;stroke-miterlimit:4;stroke-dasharray:none;stroke-opacity:1" d="m 495.469,528.281 c -0.153,2.461 -0.641,6.407 -1.617,8.946 -1.114,2.929 -2.86,5.781 -6.239,4.492 -3.34,-1.27 -2.039,-5.625 -1.679,-10.313 0.359,-4.707 -0.196,-9.804 -7.172,-12.461 -7.762,-2.968 -14.336,3.477 -16.946,10.274 -1.539,4.023 -2.027,8.125 -2.031,12.383 l 7.68,-0.137 c 0.031,-2.715 0.656,-6.231 1.398,-8.184 1.7,-4.472 3.957,-5.527 6.25,-4.629 1.453,0.547 2.305,2.051 1.602,6.582 -1.438,10.02 1.305,13.907 6.359,15.84 8.906,3.399 15.008,-2.422 18.078,-10.449 1.438,-3.75 2.09,-7.969 2.25,-11.973 l -7.933,-0.371 z" />
                <path inkscape:connector-curvature="0" id="path4026" style="fill:#ffffff;fill-opacity:1;fill-rule:nonzero;stroke:none" d="m 444.801,606.426 9.902,0.625 c 0.207,-3.262 0.488,-6.563 0.832,-9.863 l 29.637,2.988 c 0.316,-2.988 0.723,-6.172 1.144,-9.141 l -29.531,-4.16 c 0.457,-3.184 0.969,-6.387 1.539,-9.551 l -9.847,-1.777" />
                <path inkscape:connector-curvature="0" id="path4028" style="fill:none;stroke:#ffffff;stroke-width:4;stroke-linecap:butt;stroke-linejoin:miter;stroke-miterlimit:4;stroke-dasharray:none;stroke-opacity:1" d="m 444.801,606.426 9.902,0.625 c 0.207,-3.262 0.488,-6.563 0.832,-9.863 l 29.637,2.988 c 0.316,-2.988 0.723,-6.172 1.144,-9.141 l -29.531,-4.16 c 0.457,-3.184 0.969,-6.387 1.539,-9.551 l -9.847,-1.777" />
                <path inkscape:connector-curvature="0" id="path4030" style="fill:#ffffff;fill-opacity:1;fill-rule:nonzero;stroke:none" d="m 488.496,668.809 c -0.863,-3.536 -1.394,-6.875 -1.894,-10.332 0,0 -6.122,-1.661 -8.969,-2.715 -3.469,-1.25 -6.711,-3.301 -7.203,-5.957 -0.11,-0.528 -0.133,-1.153 -0.164,-1.485 l 14.933,-1.465 c -0.301,-3.046 -0.551,-6.093 -0.734,-9.16 l -38.297,2.188 c 0.324,5.449 0.824,10.84 1.473,16.25 0.933,7.676 4.703,13.984 11.679,13.476 5.719,-0.39 9.34,-4.257 9.465,-10.39 l 0.184,-0.039 c 1.496,1.758 2.832,2.441 5.246,3.808 3.777,2.188 14.281,5.821 14.281,5.821" />
                <path inkscape:connector-curvature="0" id="path4032" style="fill:none;stroke:#ffffff;stroke-width:4;stroke-linecap:butt;stroke-linejoin:miter;stroke-miterlimit:4;stroke-dasharray:none;stroke-opacity:1" d="m 488.496,668.809 c -0.863,-3.536 -1.394,-6.875 -1.894,-10.332 0,0 -6.122,-1.661 -8.969,-2.715 -3.469,-1.25 -6.711,-3.301 -7.203,-5.957 -0.11,-0.528 -0.133,-1.153 -0.164,-1.485 l 14.933,-1.465 c -0.301,-3.046 -0.551,-6.093 -0.734,-9.16 l -38.297,2.188 c 0.324,5.449 0.824,10.84 1.473,16.25 0.933,7.676 4.703,13.984 11.679,13.476 5.719,-0.39 9.34,-4.257 9.465,-10.39 l 0.184,-0.039 c 1.496,1.758 2.832,2.441 5.246,3.808 3.777,2.188 14.281,5.821 14.281,5.821 z" />
                <path inkscape:connector-curvature="0" id="path4034" style="fill:#ffffff;fill-opacity:1;fill-rule:nonzero;stroke:none" d="m 463.852,725.02 43.027,-1.172 c -1.535,-3.184 -3.008,-6.446 -4.402,-9.688 l -9.059,0.41 c -1.715,-4.16 -3.313,-8.379 -4.785,-12.656 l 7.07,-5.703 c -1.078,-3.242 -2.082,-6.523 -3.012,-9.844 l -32.589,28.77" />
                <path inkscape:connector-curvature="0" id="path4036" style="fill:none;stroke:#ffffff;stroke-width:4;stroke-linecap:butt;stroke-linejoin:miter;stroke-miterlimit:4;stroke-dasharray:none;stroke-opacity:1" d="m 463.852,725.02 43.027,-1.172 c -1.535,-3.184 -3.008,-6.446 -4.402,-9.688 l -9.059,0.41 c -1.715,-4.16 -3.313,-8.379 -4.785,-12.656 l 7.07,-5.703 c -1.078,-3.242 -2.082,-6.523 -3.012,-9.844 l -32.589,28.77" />
                <path inkscape:connector-curvature="0" id="path4038" style="fill:#ffffff;fill-opacity:1;fill-rule:nonzero;stroke:none" d="m 530.172,821.504 29.082,-9.727 -16.797,20.586 7.91,6.231 23.719,-31.914 c -2.707,-2.09 -5.375,-4.239 -7.988,-6.446 l -28.055,9.278 17.723,-18.535 c -2.016,-1.934 -3.993,-3.868 -5.942,-5.879 l -28.472,27.754" />
                <path inkscape:connector-curvature="0" id="path4040" style="fill:none;stroke:#ffffff;stroke-width:4;stroke-linecap:butt;stroke-linejoin:miter;stroke-miterlimit:4;stroke-dasharray:none;stroke-opacity:1" d="m 530.172,821.504 29.082,-9.727 -16.797,20.586 7.91,6.231 23.719,-31.914 c -2.707,-2.09 -5.375,-4.239 -7.988,-6.446 l -28.055,9.278 17.723,-18.535 c -2.016,-1.934 -3.993,-3.868 -5.942,-5.879 l -28.472,27.754" />
                <path inkscape:connector-curvature="0" id="path4042" style="fill:#ffffff;fill-opacity:1;fill-rule:nonzero;stroke:none" d="m 604.563,833.984 c 5.128,2.715 7.453,8.34 3.511,15.844 -3.949,7.496 -9.898,8.785 -15.027,6.074 -5.082,-2.66 -7.422,-8.3 -3.481,-15.804 3.934,-7.481 9.899,-8.77 14.997,-6.114 z m -15.208,29.051 c 11.602,6.094 22.68,1.531 27.903,-8.39 5.203,-9.938 2.683,-21.637 -8.93,-27.75 -11.648,-6.094 -22.73,-1.543 -27.937,8.398 -5.215,9.922 -2.676,21.637 8.964,27.742" />
                <path inkscape:connector-curvature="0" id="path4044" style="fill:none;stroke:#ffffff;stroke-width:4;stroke-linecap:butt;stroke-linejoin:miter;stroke-miterlimit:4;stroke-dasharray:none;stroke-opacity:1" d="m 604.563,833.984 c 5.128,2.715 7.453,8.34 3.511,15.844 -3.949,7.496 -9.898,8.785 -15.027,6.074 -5.082,-2.66 -7.422,-8.3 -3.481,-15.804 3.934,-7.481 9.899,-8.77 14.997,-6.114 z m -15.208,29.051 c 11.602,6.094 22.68,1.531 27.903,-8.39 5.203,-9.938 2.683,-21.637 -8.93,-27.75 -11.648,-6.094 -22.73,-1.543 -27.937,8.398 -5.215,9.922 -2.676,21.637 8.964,27.742 z" />
                <path inkscape:connector-curvature="0" id="path4046" style="fill:#ffffff;fill-opacity:1;fill-rule:nonzero;stroke:none" d="m 647.051,853.094 c 2.453,-0.129 6.41,-0.129 9.062,0.523 3.032,0.758 6.075,2.141 5.215,5.672 -0.867,3.457 -5.336,2.695 -10.039,2.899 -4.711,0.21 -9.711,1.386 -11.516,8.632 -2.003,8.063 5.2,13.801 12.274,15.582 4.168,1.028 8.305,1.028 12.516,0.516 l -1.04,-7.605 c -2.722,0.292 -6.289,0.093 -8.285,-0.399 -4.664,-1.156 -5.98,-3.266 -5.383,-5.644 0.372,-1.512 1.786,-2.54 6.34,-2.399 10.114,0.227 13.66,-2.969 14.965,-8.226 2.301,-9.247 -4.23,-14.614 -12.562,-16.688 -3.903,-0.957 -8.176,-1.094 -12.16,-0.762 l 0.613,7.899" />
                <path inkscape:connector-curvature="0" id="path4048" style="fill:none;stroke:#ffffff;stroke-width:4;stroke-linecap:butt;stroke-linejoin:miter;stroke-miterlimit:4;stroke-dasharray:none;stroke-opacity:1" d="m 647.051,853.094 c 2.453,-0.129 6.41,-0.129 9.062,0.523 3.032,0.758 6.075,2.141 5.215,5.672 -0.867,3.457 -5.336,2.695 -10.039,2.899 -4.711,0.21 -9.711,1.386 -11.516,8.632 -2.003,8.063 5.2,13.801 12.274,15.582 4.168,1.028 8.305,1.028 12.516,0.516 l -1.04,-7.605 c -2.722,0.292 -6.289,0.093 -8.285,-0.399 -4.664,-1.156 -5.98,-3.266 -5.383,-5.644 0.372,-1.512 1.786,-2.54 6.34,-2.399 10.114,0.227 13.66,-2.969 14.965,-8.226 2.301,-9.247 -4.23,-14.614 -12.562,-16.688 -3.903,-0.957 -8.176,-1.094 -12.16,-0.762 l 0.613,7.899 z" />
            </g>
        </g>
        <path inkscape:connector-curvature="0" id="path4050" style="fill:#ffffff;fill-opacity:1;fill-rule:nonzero;stroke:none" d="m 71.5074,86.3656 c 0.5375,0 0.9735,0.4352 0.9735,0.9731 0,0.5371 -0.436,0.9722 -0.9735,0.9722 -0.5386,0 -0.9738,-0.4351 -0.9738,-0.9722 0,-0.5379 0.4352,-0.9731 0.9738,-0.9731" />
        <path inkscape:connector-curvature="0" id="path4052" style="fill:none;stroke:#ffffff;stroke-width:0.40000001;stroke-linecap:butt;stroke-linejoin:miter;stroke-miterlimit:4;stroke-dasharray:none;stroke-opacity:1" d="m 71.5074,86.3656 c 0.5375,0 0.9735,0.4352 0.9735,0.9731 0,0.5371 -0.436,0.9722 -0.9735,0.9722 -0.5386,0 -0.9738,-0.4351 -0.9738,-0.9722 0,-0.5379 0.4352,-0.9731 0.9738,-0.9731 z" />
        <path inkscape:connector-curvature="0" id="path4054" style="fill:#ffffff;fill-opacity:1;fill-rule:nonzero;stroke:none" d="m 91.2672,75.9922 c 0.3035,-0.4434 0.9121,-0.5547 1.3535,-0.2481 0.4422,0.3047 0.5516,0.9102 0.2469,1.3516 -0.3035,0.4434 -0.909,0.5527 -1.3516,0.2481 -0.4433,-0.3047 -0.5535,-0.9102 -0.2488,-1.3516" />
        <path inkscape:connector-curvature="0" id="path4056" style="fill:none;stroke:#ffffff;stroke-width:0.40000001;stroke-linecap:butt;stroke-linejoin:miter;stroke-miterlimit:4;stroke-dasharray:none;stroke-opacity:1" d="m 91.2672,75.9922 c 0.3035,-0.4434 0.9121,-0.5547 1.3535,-0.2481 0.4422,0.3047 0.5516,0.9102 0.2469,1.3516 -0.3035,0.4434 -0.909,0.5527 -1.3516,0.2481 -0.4433,-0.3047 -0.5535,-0.9102 -0.2488,-1.3516 z" />
        <path inkscape:connector-curvature="0" id="path4058" style="fill:#ffffff;fill-opacity:1;fill-rule:nonzero;stroke:none" d="m 71.5074,38.3535 c 0.5375,0 0.9735,-0.4355 0.9735,-0.9746 0,-0.5391 -0.436,-0.9726 -0.9735,-0.9726 -0.5386,0 -0.9738,0.4335 -0.9738,0.9726 0,0.5391 0.4352,0.9746 0.9738,0.9746" />
        <path inkscape:connector-curvature="0" id="path4060" style="fill:none;stroke:#ffffff;stroke-width:0.40000001;stroke-linecap:butt;stroke-linejoin:miter;stroke-miterlimit:4;stroke-dasharray:none;stroke-opacity:1" d="m 71.5074,38.3535 c 0.5375,0 0.9735,-0.4355 0.9735,-0.9746 0,-0.5391 -0.436,-0.9726 -0.9735,-0.9726 -0.5386,0 -0.9738,0.4335 -0.9738,0.9726 0,0.5391 0.4352,0.9746 0.9738,0.9746 z" />
        <path inkscape:connector-curvature="0" id="path4062" style="fill:#ffffff;fill-opacity:1;fill-rule:nonzero;stroke:none" d="m 51.7457,75.9922 c 0.3051,0.4414 0.1945,1.0469 -0.2477,1.3516 -0.4421,0.3046 -1.0484,0.1953 -1.3535,-0.2481 -0.3047,-0.4414 -0.1937,-1.0469 0.2485,-1.3516 0.4414,-0.3066 1.048,-0.1953 1.3527,0.2481" />
        <path inkscape:connector-curvature="0" id="path4064" style="fill:none;stroke:#ffffff;stroke-width:0.40000001;stroke-linecap:butt;stroke-linejoin:miter;stroke-miterlimit:4;stroke-dasharray:none;stroke-opacity:1" d="m 51.7457,75.9922 c 0.3051,0.4414 0.1945,1.0469 -0.2477,1.3516 -0.4421,0.3046 -1.0484,0.1953 -1.3535,-0.2481 -0.3047,-0.4414 -0.1937,-1.0469 0.2485,-1.3516 0.4414,-0.3066 1.048,-0.1953 1.3527,0.2481 z" />
        <path inkscape:connector-curvature="0" id="path4066" style="fill:#fcd205;fill-opacity:1;fill-rule:nonzero;stroke:none" d="m 74.0867,51.8984 6.5637,-14.875 0.8141,0.3086" />
        <path inkscape:connector-curvature="0" id="path4068" style="fill:#fcd205;fill-opacity:1;fill-rule:nonzero;stroke:none" d="m 61.0188,66.3301 -15.4512,2.9472 -0.1059,-0.0527 -0.209,-0.8457" />
        <path inkscape:connector-curvature="0" id="path4070" style="fill:#fcd205;fill-opacity:1;fill-rule:nonzero;stroke:none" d="m 47.8621,75.2598 -0.4047,-0.7715 0.0531,-0.1328 13.5083,-8.0254" />
        <g id="g4072" transform="scale(0.1,0.1)">
            <g clip-path="url(#clipPath4076)" id="g4074">
                <path inkscape:connector-curvature="0" id="path4080" style="fill:#231f20;fill-opacity:1;fill-rule:nonzero;stroke:none" d="m 686.504,893.699 28.57,-162.371 28.559,162.371" />
                <path inkscape:connector-curvature="0" id="path4082" style="fill:#231f20;fill-opacity:1;fill-rule:nonzero;stroke:none" d="M 752.008,892.691 740.867,728.203 807.465,879.02" />
                <path inkscape:connector-curvature="0" id="path4084" style="fill:#231f20;fill-opacity:1;fill-rule:nonzero;stroke:none" d="M 815.289,876.051 765.137,718.984 865.883,849.496" />
                <path inkscape:connector-curvature="0" id="path4086" style="fill:#231f20;fill-opacity:1;fill-rule:nonzero;stroke:none" d="M 872.805,844.707 786.52,704.238 915.551,806.816" />
                <path inkscape:connector-curvature="0" id="path4088" style="fill:#231f20;fill-opacity:1;fill-rule:nonzero;stroke:none" d="M 921.117,800.547 803.734,684.785 953.578,753.535" />
                <path inkscape:connector-curvature="0" id="path4090" style="fill:#231f20;fill-opacity:1;fill-rule:nonzero;stroke:none" d="m 957.477,746.074 -141.664,-84.258 161.925,30.86" />
                <path inkscape:connector-curvature="0" id="path4092" style="fill:#231f20;fill-opacity:1;fill-rule:nonzero;stroke:none" d="m 979.77,684.492 -157.739,-47.929 164.614,-8.77" />
                <path inkscape:connector-curvature="0" id="path4094" style="fill:#231f20;fill-opacity:1;fill-rule:nonzero;stroke:none" d="M 986.645,619.395 822.031,610.605 979.77,562.676" />
                <path inkscape:connector-curvature="0" id="path4096" style="fill:#231f20;fill-opacity:1;fill-rule:nonzero;stroke:none" d="m 977.738,554.531 -161.925,30.86 141.664,-84.297" />
                <path inkscape:connector-curvature="0" id="path4098" style="fill:#231f20;fill-opacity:1;fill-rule:nonzero;stroke:none" d="M 953.578,493.633 803.734,562.383 921.117,446.641" />
                <path inkscape:connector-curvature="0" id="path4100" style="fill:#231f20;fill-opacity:1;fill-rule:nonzero;stroke:none" d="M 915.551,440.352 786.52,542.969 872.805,402.48" />
                <path inkscape:connector-curvature="0" id="path4102" style="fill:#231f20;fill-opacity:1;fill-rule:nonzero;stroke:none" d="M 865.883,397.676 765.137,528.184 815.289,371.133" />
                <path inkscape:connector-curvature="0" id="path4104" style="fill:#231f20;fill-opacity:1;fill-rule:nonzero;stroke:none" d="M 743.633,353.496 715.074,515.859 686.504,353.496" />
                <path inkscape:connector-curvature="0" id="path4106" style="fill:#231f20;fill-opacity:1;fill-rule:nonzero;stroke:none" d="m 678.141,354.492 11.136,164.492 -66.597,-150.8" />
                <path inkscape:connector-curvature="0" id="path4108" style="fill:#231f20;fill-opacity:1;fill-rule:nonzero;stroke:none" d="M 614.848,371.133 665.012,528.184 564.262,397.676" />
                <path inkscape:connector-curvature="0" id="path4110" style="fill:#231f20;fill-opacity:1;fill-rule:nonzero;stroke:none" d="M 557.324,402.48 643.629,542.969 514.566,440.352" />
                <path inkscape:connector-curvature="0" id="path4112" style="fill:#231f20;fill-opacity:1;fill-rule:nonzero;stroke:none" d="M 509.02,446.641 626.41,562.383 476.559,493.633" />
                <path inkscape:connector-curvature="0" id="path4114" style="fill:#231f20;fill-opacity:1;fill-rule:nonzero;stroke:none" d="m 472.645,501.094 141.679,84.297 -161.945,-30.86" />
                <path inkscape:connector-curvature="0" id="path4116" style="fill:#231f20;fill-opacity:1;fill-rule:nonzero;stroke:none" d="m 450.367,562.676 157.746,47.929 -164.633,8.79" />
                <path inkscape:connector-curvature="0" id="path4118" style="fill:#231f20;fill-opacity:1;fill-rule:nonzero;stroke:none" d="m 443.48,627.793 164.633,8.77 -157.746,47.929" />
                <path inkscape:connector-curvature="0" id="path4120" style="fill:#231f20;fill-opacity:1;fill-rule:nonzero;stroke:none" d="m 452.379,692.676 161.945,-30.86 -141.679,84.258" />
                <path inkscape:connector-curvature="0" id="path4122" style="fill:#231f20;fill-opacity:1;fill-rule:nonzero;stroke:none" d="M 476.559,753.535 626.41,684.785 509.02,800.547" />
                <path inkscape:connector-curvature="0" id="path4124" style="fill:#231f20;fill-opacity:1;fill-rule:nonzero;stroke:none" d="M 514.566,806.816 643.629,704.238 557.324,844.707" />
                <path inkscape:connector-curvature="0" id="path4126" style="fill:#231f20;fill-opacity:1;fill-rule:nonzero;stroke:none" d="M 564.262,849.496 665.012,718.984 614.848,876.051" />
                <path inkscape:connector-curvature="0" id="path4128" style="fill:#231f20;fill-opacity:1;fill-rule:nonzero;stroke:none" d="M 622.68,879.02 689.277,728.203 678.141,892.691" />
                <path inkscape:connector-curvature="0" id="path4130" style="fill:#ffffff;fill-opacity:1;fill-rule:nonzero;stroke:none" d="m 885.398,834.18 -25.054,-30.723 c 6.574,-5.332 12.844,-10.977 18.804,-16.992 l 6.063,6.015 c -3.91,3.946 -7.981,7.754 -12.168,11.446 l 20.398,23.457" />
                <path inkscape:connector-curvature="0" id="path4132" style="fill:#ffffff;fill-opacity:1;fill-rule:nonzero;stroke:none" d="m 970.18,714.609 -37.5,-13.32 c -0.996,2.813 -2.137,5.781 -3.289,8.594 l 37.019,14.785" />
                <path inkscape:connector-curvature="0" id="path4134" style="fill:#ffffff;fill-opacity:1;fill-rule:nonzero;stroke:none" d="m 984.996,645.898 -30.664,6.192 -0.019,0.098 28.378,12.929 -1.796,10.41 -37.071,-19.336 c 0.535,-3.613 0.926,-7.187 1.278,-10.8 l 40.5,-9.532" />
                <path inkscape:connector-curvature="0" id="path4136" style="fill:#ffffff;fill-opacity:1;fill-rule:nonzero;stroke:none" d="m 962.379,513.047 -9.172,4.082 c 1.34,2.969 2.637,6.035 3.848,9.101 l -27.606,11.153 c 1.133,2.812 2.235,5.801 3.231,8.613 l 28.078,-10.058 c 1.074,3.046 2.129,6.113 3.094,9.179 l 9.503,-2.988" />
                <path inkscape:connector-curvature="0" id="path4138" style="fill:#ffffff;fill-opacity:1;fill-rule:nonzero;stroke:none" d="m 934.789,465.273 -32.234,23.321 c 1.746,2.441 3.554,5.097 5.203,7.597 l 33.183,-22.07" />
                <path inkscape:connector-curvature="0" id="path4140" style="fill:#ffffff;fill-opacity:1;fill-rule:nonzero;stroke:none" d="m 882.613,410.801 -6.207,7.812 c 2.578,2.051 5.137,4.121 7.649,6.27 l -19.266,22.734 c 2.313,1.953 4.668,4.082 6.883,6.113 l 20.152,-21.953 c 2.399,2.188 4.739,4.414 7,6.7 l 7.031,-7.11" />
                <path inkscape:connector-curvature="0" id="path4142" style="fill:#ffffff;fill-opacity:1;fill-rule:nonzero;stroke:none" d="m 836.063,381.211 -17.766,35.703 c 2.699,1.367 5.504,2.832 8.141,4.316 l 19.152,-34.98" />
                <path inkscape:connector-curvature="0" id="path4144" style="fill:#231f20;fill-opacity:1;fill-rule:nonzero;stroke:none" d="m 807.465,368.184 -66.598,150.8 11.141,-164.492" />
            </g>
        </g>
        <g id="g4146" transform="scale(0.1,0.1)">
            <g clip-path="url(#clipPath4150)" id="g4148">
                <g clip-path="url(#clipPath4156)" id="g4154">
                    <path inkscape:connector-curvature="0" id="path4160" style="fill:#ffffff;fill-opacity:1;fill-rule:nonzero;stroke:none" d="m 785.133,369.785 -3.688,13.516 c 2.66,0.742 5.629,1.621 8.395,2.48 l -4.219,-15.879 -0.488,-0.117 z m 6.902,-5.918 7.836,25.039 -5.988,13.457 -2.024,-7.773 c -4.086,-1.387 -8.199,-2.676 -12.347,-3.828 l -2.934,10.078 c -7.629,-2.129 -15.363,-3.848 -23.156,-5.156 l 1.406,-8.418 c 4.781,0.8 9.547,1.738 14.863,2.988 l 1.676,-6.641 c -4.996,-1.152 -9.41,-2.05 -13.84,-2.832 l 1.258,-7.578 c 4.672,0.801 9.188,1.738 14.434,2.93 l 1.625,-6.485 c -5.789,-1.347 -10.965,-2.382 -16.16,-3.261 l 1.609,-9.883" />
                </g>
            </g>
        </g>
        <g id="g4162" transform="scale(0.1,0.1)">
            <g clip-path="url(#clipPath4166)" id="g4164">
                <path inkscape:connector-curvature="0" id="path4170" style="fill:#ffffff;fill-opacity:1;fill-rule:nonzero;stroke:none" d="m 645.215,361.875 10.348,38.477 c 2.917,-0.782 6.023,-1.504 8.98,-2.168 l -8.836,-38.907" />
                <path inkscape:connector-curvature="0" id="path4172" style="fill:#ffffff;fill-opacity:1;fill-rule:nonzero;stroke:none" d="m 600.242,378.242 16.992,35.977 c -7.664,3.594 -15.121,7.578 -22.351,11.972 l -4.434,-7.304 c 4.75,-2.891 9.61,-5.606 14.563,-8.164 L 590.664,382.93" />
                <path inkscape:connector-curvature="0" id="path4174" style="fill:#ffffff;fill-opacity:1;fill-rule:nonzero;stroke:none" d="m 544.898,412.91 25.043,30.82 c -6.578,5.313 -12.867,10.977 -18.828,16.993 l -6.054,-6.035 c 3.925,-3.965 7.988,-7.754 12.175,-11.426 l -20.453,-23.379" />
                <path inkscape:connector-curvature="0" id="path4176" style="fill:#ffffff;fill-opacity:1;fill-rule:nonzero;stroke:none" d="m 481.332,486.758 40.285,10.43 c 1.977,-3.028 4.028,-6.016 6.153,-8.946 l -23.79,-34.297 -6.476,8.321 19.117,24.609 -0.058,0.078 -29.985,-8.808" />
                <path inkscape:connector-curvature="0" id="path4178" style="fill:#ffffff;fill-opacity:1;fill-rule:nonzero;stroke:none" d="m 444.801,606.426 9.902,0.625 c 0.207,-3.262 0.488,-6.563 0.832,-9.863 l 29.637,2.988 c 0.316,-2.988 0.723,-6.172 1.144,-9.141 l -29.531,-4.16 c 0.457,-3.184 0.969,-6.387 1.539,-9.551 l -9.847,-1.777" />
                <path inkscape:connector-curvature="0" id="path4180" style="fill:#ffffff;fill-opacity:1;fill-rule:nonzero;stroke:none" d="m 454.285,654.238 c -0.16,-1.445 -0.187,-2.89 -0.355,-4.472 l 9.547,-0.957 c 0.121,1.328 0.308,2.91 0.464,4.296 0.282,2.383 -0.195,6.036 -4.07,6.465 -3.152,0.371 -5.141,-1.328 -5.586,-5.332 z m -8.371,2.032 1.727,-0.137 c 0.933,7.676 4.703,13.984 11.679,13.476 5.719,-0.39 9.34,-4.257 9.465,-10.39 l 0.184,-0.039 c 1.496,1.758 2.832,2.441 5.246,3.808 3.777,2.188 14.281,5.821 14.281,5.821 -0.863,-3.536 -1.394,-6.875 -1.894,-10.332 0,0 -6.122,-1.661 -8.969,-2.715 -3.469,-1.25 -6.711,-3.301 -7.203,-5.957 -0.11,-0.528 -0.133,-1.153 -0.164,-1.485 l 14.933,-1.465 c -0.301,-3.046 -0.551,-6.093 -0.734,-9.16 l -40.145,2.325" />
                <path inkscape:connector-curvature="0" id="path4182" style="fill:#ffffff;fill-opacity:1;fill-rule:nonzero;stroke:none" d="m 469.984,716.504 12.481,-9.59 c 1.012,2.832 2.078,5.606 3.187,8.418 l -15.629,1.289 -0.039,-0.117 z m -6.132,8.516 43.027,-1.172 c -1.535,-3.184 -3.008,-6.446 -4.402,-9.688 l -9.059,0.41 c -1.715,-4.16 -3.313,-8.379 -4.785,-12.656 l 7.07,-5.703 c -1.078,-3.242 -2.082,-6.523 -3.012,-9.844 l -32.589,28.77" />
                <path inkscape:connector-curvature="0" id="path4184" style="fill:#ffffff;fill-opacity:1;fill-rule:nonzero;stroke:none" d="m 530.172,821.504 29.082,-9.727 -16.797,20.586 7.91,6.231 23.719,-31.914 c -2.707,-2.09 -5.375,-4.239 -7.988,-6.446 l -28.055,9.278 17.723,-18.535 c -2.016,-1.934 -3.993,-3.868 -5.942,-5.879 l -28.472,27.754" />
                <path inkscape:connector-curvature="0" id="path4186" style="fill:#ffffff;fill-opacity:1;fill-rule:nonzero;stroke:none" d="m 761.527,858.406 c 2.106,-1.269 5.606,-3.105 8.27,-3.746 3.031,-0.73 6.371,-0.926 7.238,2.606 0.848,3.461 -3.465,4.851 -7.527,7.23 -4.074,2.379 -7.953,5.738 -6.188,12.992 1.989,8.063 11.016,9.821 18.106,8.082 4.172,-1.035 7.836,-2.945 11.316,-5.359 l -4.445,-6.246 c -2.274,1.527 -5.531,3.012 -7.527,3.504 -4.665,1.14 -6.809,-0.117 -7.387,-2.504 -0.363,-1.516 0.394,-3.082 4.508,-5.063 9.058,-4.511 10.714,-8.992 9.433,-14.254 -2.269,-9.242 -10.554,-10.96 -18.89,-8.914 -3.899,0.946 -7.75,2.821 -11.133,4.969 l 4.226,6.703" />
                <path inkscape:connector-curvature="0" id="path4188" style="fill:#ffffff;fill-opacity:1;fill-rule:nonzero;stroke:none" d="m 825.496,834.043 c 5.125,-2.695 11.102,-1.406 15.027,6.074 3.934,7.524 1.606,13.153 -3.527,15.844 -5.078,2.672 -11.027,1.398 -14.965,-6.113 -3.941,-7.504 -1.621,-13.149 3.465,-15.805 z m 15.285,28.992 c 11.598,-6.09 14.129,-17.801 8.938,-27.722 -5.223,-9.942 -16.305,-14.493 -27.903,-8.418 -11.648,6.113 -14.187,17.832 -8.98,27.765 5.211,9.926 16.301,14.481 27.945,8.375" />
                <path inkscape:connector-curvature="0" id="path4190" style="fill:#ffffff;fill-opacity:1;fill-rule:nonzero;stroke:none" d="m 953.766,605.684 c -1.016,-2.246 -2.395,-5.938 -2.715,-8.653 -0.371,-3.105 -0.176,-6.445 3.437,-6.875 3.543,-0.429 4.414,4.024 6.27,8.36 1.883,4.297 4.734,8.574 12.176,7.675 8.234,-0.976 11.066,-9.746 10.187,-16.992 -0.508,-4.297 -1.992,-8.125 -3.945,-11.894 l -6.758,3.672 c 1.25,2.421 2.344,5.839 2.578,7.91 0.567,4.746 -0.949,6.738 -3.359,7.011 -1.555,0.196 -3.02,-0.742 -4.504,-5.097 -3.399,-9.512 -7.637,-11.699 -12.996,-11.055 -9.453,1.133 -12.16,9.16 -11.145,17.676 0.481,3.984 1.856,8.027 3.594,11.621 l 7.18,-3.359" />
                <path inkscape:connector-curvature="0" id="path4192" style="fill:#ffffff;fill-opacity:1;fill-rule:nonzero;stroke:none" d="m 495.469,528.281 c -0.153,2.461 -0.641,6.407 -1.617,8.946 -1.114,2.929 -2.86,5.781 -6.239,4.492 -3.34,-1.27 -2.039,-5.625 -1.679,-10.313 0.359,-4.707 -0.196,-9.804 -7.172,-12.461 -7.762,-2.968 -14.336,3.477 -16.946,10.274 -1.539,4.023 -2.027,8.125 -2.031,12.383 l 7.68,-0.137 c 0.031,-2.715 0.656,-6.231 1.398,-8.184 1.7,-4.472 3.957,-5.527 6.25,-4.629 1.453,0.547 2.305,2.051 1.602,6.582 -1.438,10.02 1.305,13.907 6.359,15.84 8.906,3.399 15.008,-2.422 18.078,-10.449 1.438,-3.75 2.09,-7.969 2.25,-11.973 l -7.933,-0.371" />
                <path inkscape:connector-curvature="0" id="path4194" style="fill:#ffffff;fill-opacity:1;fill-rule:nonzero;stroke:none" d="m 604.563,833.984 c 5.128,2.715 7.453,8.34 3.511,15.844 -3.949,7.496 -9.898,8.785 -15.027,6.074 -5.082,-2.66 -7.422,-8.3 -3.481,-15.804 3.934,-7.481 9.899,-8.77 14.997,-6.114 z m -15.208,29.051 c 11.602,6.094 22.68,1.531 27.903,-8.39 5.203,-9.938 2.683,-21.637 -8.93,-27.75 -11.648,-6.094 -22.73,-1.543 -27.937,8.398 -5.215,9.922 -2.676,21.637 8.964,27.742" />
                <path inkscape:connector-curvature="0" id="path4196" style="fill:#ffffff;fill-opacity:1;fill-rule:nonzero;stroke:none" d="m 647.051,853.094 c 2.453,-0.129 6.41,-0.129 9.062,0.523 3.032,0.758 6.075,2.141 5.215,5.672 -0.867,3.457 -5.336,2.695 -10.039,2.899 -4.711,0.21 -9.711,1.386 -11.516,8.632 -2.003,8.063 5.2,13.801 12.274,15.582 4.168,1.028 8.305,1.028 12.516,0.516 l -1.04,-7.605 c -2.722,0.292 -6.289,0.093 -8.285,-0.399 -4.664,-1.156 -5.98,-3.266 -5.383,-5.644 0.372,-1.512 1.786,-2.54 6.34,-2.399 10.114,0.227 13.66,-2.969 14.965,-8.226 2.301,-9.247 -4.23,-14.614 -12.562,-16.688 -3.903,-0.957 -8.176,-1.094 -12.16,-0.762 l 0.613,7.899" />
                <path inkscape:connector-curvature="0" id="path4198" style="fill:#ffffff;fill-opacity:1;fill-rule:nonzero;stroke:none" d="m 715.074,863.656 c 5.375,0 9.735,4.352 9.735,9.731 0,5.371 -4.36,9.722 -9.735,9.722 -5.386,0 -9.738,-4.351 -9.738,-9.722 0,-5.379 4.352,-9.731 9.738,-9.731" />
                <path inkscape:connector-curvature="0" id="path4200" style="fill:#ffffff;fill-opacity:1;fill-rule:nonzero;stroke:none" d="m 912.672,759.922 c 3.035,-4.434 9.121,-5.547 13.535,-2.481 4.422,3.047 5.516,9.102 2.469,13.516 -3.035,4.434 -9.09,5.527 -13.516,2.481 -4.433,-3.047 -5.535,-9.102 -2.488,-13.516" />
                <path inkscape:connector-curvature="0" id="path4202" style="fill:#ffffff;fill-opacity:1;fill-rule:nonzero;stroke:none" d="m 715.074,383.535 c 5.375,0 9.735,-4.355 9.735,-9.746 0,-5.391 -4.36,-9.726 -9.735,-9.726 -5.386,0 -9.738,4.335 -9.738,9.726 0,5.391 4.352,9.746 9.738,9.746" />
                <path inkscape:connector-curvature="0" id="path4204" style="fill:#ffffff;fill-opacity:1;fill-rule:nonzero;stroke:none" d="m 517.457,759.922 c 3.051,4.414 1.945,10.469 -2.477,13.516 -4.421,3.046 -10.484,1.953 -13.535,-2.481 -3.047,-4.414 -1.937,-10.469 2.485,-13.516 4.414,-3.066 10.48,-1.953 13.527,2.481" />
            </g>
        </g>
        <path inkscape:connector-curvature="0" id="path4206" style="fill:#ed1639;fill-opacity:1;fill-rule:nonzero;stroke:none" d="m 75.2008,58.668 c -0.3039,-0.3106 -0.725,-0.502 -1.1926,-0.502 l -0.9805,0 c -0.5488,0 -1.0359,-0.2656 -1.3402,-0.6758 l -0.3613,0 c -0.3032,0.4102 -0.7914,0.6758 -1.3403,0.6758 l -0.9796,0 c -0.9211,0 -1.668,0.7461 -1.668,1.668 l 0,6.6953" />
        <path inkscape:connector-curvature="0" id="path4208" style="fill:#ffffff;fill-opacity:1;fill-rule:nonzero;stroke:none" d="m 67.3383,66.5293 8.3379,0 0,-6.6953 c 0,-0.457 -0.1805,-0.8652 -0.4754,-1.166" />
        <path inkscape:connector-curvature="0" id="path4210" style="fill:#231f20;fill-opacity:1;fill-rule:nonzero;stroke:none" d="m 75.2516,66.1016 -7.4883,0 0,-6.2461 c 0,-0.6817 0.5566,-1.2403 1.243,-1.2403 l 0.9796,0 c 0.5977,0 1.1258,-0.25 1.5079,-0.6484 l 0.0261,0 c 0.3832,0.3984 0.9114,0.6484 1.5078,0.6484 l 0.9805,0 c 0.6871,0 1.2434,0.5586 1.2434,1.2403 l 0,6.2461 z m 0.8597,-6.2461 c 0,-1.1602 -0.9425,-2.0996 -2.1031,-2.0996 l -0.9805,0 c -0.5144,0 -0.9558,-0.3145 -1.1449,-0.7598 l -0.7519,0 c -0.1879,0.4453 -0.6293,0.7598 -1.145,0.7598 l -0.9796,0 c -1.1618,0 -2.1032,0.9394 -2.1032,2.0996 l 0,7.1093 9.2082,0 0,-7.1093" />
        <path inkscape:connector-curvature="0" id="path4212" style="fill:#231f20;fill-opacity:1;fill-rule:nonzero;stroke:none" d="m 182.777,68.6797 4.92,0 0,-0.7414 -0.133,0 c -1.52,0 -1.748,-0.6649 -1.748,-1.5762 l 0,-4.7305 c 0,-4.2363 -3.077,-5.0339 -5.338,-5.0339 -3.42,0 -5.585,1.4812 -5.585,4.3875 l 0,5.6613 c 0,0.95 -0.267,1.2918 -1.33,1.2918 l -0.323,0 0,0.7414 5.946,0 0,-0.7414 -0.323,0 c -0.798,0 -1.349,-0.3602 -1.349,-1.2918 l 0,-5.6613 c 0,-2.3172 1.71,-3.1153 3.439,-3.1153 2.489,0 3.723,1.4063 3.723,3.4953 l 0,4.6172 c 0,1.3485 -0.38,1.9559 -1.557,1.9559 l -0.342,0 0,0.7414" />
        <path inkscape:connector-curvature="0" id="path4214" style="fill:#231f20;fill-opacity:1;fill-rule:nonzero;stroke:none" d="m 197.198,58.5918 c 0,-0.9309 0.342,-1.1211 1.083,-1.1211 l 0,-0.6074 -4.484,0 0,0.6074 c 0.78,0.0574 1.083,0.5898 1.083,2.1473 l 0,1.6523 c 0,1.5195 -0.418,2.1086 -1.177,2.1086 -0.589,0 -1.216,-0.2844 -2.014,-0.8359 l 0,-3.8555 c 0,-0.8555 0.361,-1.2168 1.121,-1.2168 l 0.171,0 0,-0.6074 -4.807,0 0,0.6074 0.115,0 c 0.797,0 1.083,0.3426 1.083,1.3301 l 0,3.7051 c 0,0.4179 -0.229,0.664 -0.894,0.8543 l -0.398,0.1144 0,0.4559 3.248,1.1015 0.361,0 0,-1.6902 c 1.387,0.9109 2.603,1.4812 3.515,1.4812 1.386,0 1.994,-0.9882 1.994,-3.2675 l 0,-2.9637" />
        <path inkscape:connector-curvature="0" id="path4216" style="fill:#231f20;fill-opacity:1;fill-rule:nonzero;stroke:none" d="m 202.823,68.0527 c 0,-0.7597 -0.722,-1.2922 -1.501,-1.2922 -0.874,0 -1.52,0.5508 -1.52,1.2922 0,0.6836 0.722,1.2918 1.52,1.2918 0.874,0 1.501,-0.5703 1.501,-1.2918 z m 0.892,-11.1894 -4.749,0 0,0.6074 0.209,0 c 0.779,0 1.064,0.3426 1.064,1.3301 l 0,3.6472 c 0,0.4942 -0.114,0.627 -0.646,0.8176 l -0.627,0.2274 0,0.4562 3.248,1.0828 0.342,0 0,-6.364 c 0,-0.7793 0.323,-1.1973 1.159,-1.1973 l 0,-0.6074" />
        <path inkscape:connector-curvature="0" id="path4218" style="fill:#231f20;fill-opacity:1;fill-rule:nonzero;stroke:none" d="m 203.925,64.6141 4.825,0 0,-0.6082 -0.665,0 c -0.398,0 -0.57,-0.3606 -0.247,-1.0637 l 1.691,-3.7801 1.482,3.3438 c 0.437,0.9871 0.209,1.3671 -1.121,1.5 l 0,0.6082 3.78,0 0,-0.6082 c -0.987,-0.095 -1.234,-0.3418 -1.595,-1.1399 l -2.717,-6.1355 -1.14,0 -2.83,6.0976 c -0.361,0.7793 -0.627,1.0828 -1.463,1.1778 l 0,0.6082" />
        <path inkscape:connector-curvature="0" id="path4220" style="fill:#231f20;fill-opacity:1;fill-rule:nonzero;stroke:none" d="m 218.877,61.5742 c -0.018,1.4629 -0.531,2.3563 -1.348,2.3563 -0.779,0 -1.482,-1.0067 -1.349,-2.3563 l 2.697,0 z m 2.452,-2.507 c -1.064,-1.5008 -2.603,-2.4129 -4.066,-2.4129 -2.07,0 -3.476,1.5957 -3.476,3.8945 0,2.5078 1.69,4.2742 4.065,4.2742 1.007,0 1.805,-0.323 2.394,-0.9121 1.121,-1.1211 0.588,-2.1843 1.254,-2.5261 l 0,-0.5508 -5.263,0 c 0.152,-1.5774 1.216,-2.7735 2.337,-2.7735 0.703,0 1.386,0.3985 2.318,1.3672 l 0.437,-0.3605" />
        <path inkscape:connector-curvature="0" id="path4222" style="fill:#231f20;fill-opacity:1;fill-rule:nonzero;stroke:none" d="m 227.789,56.8633 -5.282,0 0,0.6074 0.133,0 c 0.779,0 1.065,0.3426 1.065,1.3301 l 0,3.0965 c 0,0.8547 -0.115,1.0449 -0.685,1.2726 l -0.513,0.209 0,0.4754 3.116,1.1777 0.399,0 0,-2.1277 0.038,0 c 0.702,1.368 1.007,1.9187 1.652,1.9187 0.133,0 0.286,-0.0195 0.38,-0.0574 l 1.501,-0.5508 c -0.227,-0.798 -0.532,-1.4816 -0.912,-2.0136 -0.589,0.2285 -1.292,0.4754 -1.538,0.4754 -0.381,0 -0.703,-0.2664 -1.121,-0.8555 l 0,-3.077 c 0,-0.9121 0.285,-1.2734 1.272,-1.2734 l 0.495,0 0,-0.6074" />
        <path inkscape:connector-curvature="0" id="path4224" style="fill:#231f20;fill-opacity:1;fill-rule:nonzero;stroke:none" d="m 230.792,59.1043 0.608,0 c 0.322,-1.0633 1.158,-1.6336 1.975,-1.6336 0.532,0 0.988,0.3992 0.988,0.8738 0,1.3118 -3.571,1.7668 -3.571,4.0657 0,1.4441 1.197,2.4128 2.982,2.4128 0.722,0 1.33,-0.114 2.128,-0.3992 l 0.038,-2.0324 -0.608,0 c -0.342,1.0449 -0.969,1.6145 -1.786,1.6145 -0.494,0 -0.874,-0.3039 -0.874,-0.7219 0,-1.5574 3.743,-1.6141 3.743,-4.2168 0,-1.4063 -1.007,-2.3945 -2.47,-2.3945 -1.311,0 -1.747,0.2668 -2.014,0.2668 -0.113,0 -0.227,-0.0762 -0.38,-0.2473 l -0.551,0 -0.208,2.4121" />
        <path inkscape:connector-curvature="0" id="path4226" style="fill:#231f20;fill-opacity:1;fill-rule:nonzero;stroke:none" d="m 241.26,68.0527 c 0,-0.7597 -0.721,-1.2922 -1.501,-1.2922 -0.874,0 -1.519,0.5508 -1.519,1.2922 0,0.6836 0.721,1.2918 1.519,1.2918 0.874,0 1.501,-0.5703 1.501,-1.2918 z m 0.893,-11.1894 -4.749,0 0,0.6074 0.209,0 c 0.778,0 1.063,0.3426 1.063,1.3301 l 0,3.6472 c 0,0.4942 -0.114,0.627 -0.645,0.8176 l -0.627,0.2274 0,0.4562 3.248,1.0828 0.342,0 0,-6.364 c 0,-0.7793 0.323,-1.1973 1.159,-1.1973 l 0,-0.6074" />
        <path inkscape:connector-curvature="0" id="path4228" style="fill:#231f20;fill-opacity:1;fill-rule:nonzero;stroke:none" d="m 246.447,58.9715 c 0,-0.702 0.323,-1.0067 0.874,-1.0067 0.456,0 0.892,0.2852 1.443,0.95 l 0.267,-0.532 c -0.571,-1.0254 -1.71,-1.7285 -2.755,-1.7285 -1.292,0 -2.147,0.7215 -2.147,2.3555 l 0,4.5593 -1.006,0 0,0.4942 c 1.139,0.4746 2.431,1.8613 2.773,2.9258 l 0.551,0 0,-2.375 2.489,0 -0.285,-1.045 -2.204,0 0,-4.5976" />
        <path inkscape:connector-curvature="0" id="path4230" style="fill:#231f20;fill-opacity:1;fill-rule:nonzero;stroke:none" d="m 251.976,62.2773 c -0.664,1.368 -0.987,1.7286 -1.805,1.7286 l 0,0.6082 4.845,0 0,-0.6082 c -0.988,0 -1.14,-0.3801 -0.779,-1.1399 l 1.577,-3.2676 1.443,2.9258 c 0.4,0.8176 0.153,1.4629 -0.987,1.4817 l 0,0.6082 3.533,0 0,-0.6082 c -0.854,-0.1895 -1.101,-0.418 -1.634,-1.5 l -4.254,-8.6633 c -0.476,-0.95 -1.065,-1.4063 -1.73,-1.4063 -0.684,0 -1.196,0.4563 -1.196,1.0832 0,0.3047 0.114,0.627 0.285,0.7977 0.874,0.8742 1.881,-0.3035 2.888,1.9004 l 0.38,0.8359 -2.566,5.2238" />
        <path inkscape:connector-curvature="0" id="path4232" style="fill:#231f20;fill-opacity:1;fill-rule:nonzero;stroke:none" d="m 115.364,68.6141 4.875,0 0,-0.7325 -0.134,0 c -1.503,0 -1.73,-0.657 -1.73,-1.5613 l 0,-4.6808 c 0,-4.1954 -3.045,-4.9825 -5.283,-4.9825 -3.386,0 -5.53,1.4641 -5.53,4.3418 l 0,5.6035 c 0,0.9426 -0.262,1.2793 -1.316,1.2793 l -0.321,0 0,0.7325 5.887,0 0,-0.7325 -0.316,0 c -0.795,0 -1.336,-0.3562 -1.336,-1.2793 l 0,-5.6035 c 0,-2.2937 1.688,-3.084 3.399,-3.084 2.466,0 3.691,1.3899 3.691,3.4602 l 0,4.5691 c 0,1.3352 -0.378,1.9375 -1.545,1.9375 l -0.341,0 0,0.7325" />
        <path inkscape:connector-curvature="0" id="path4234" style="fill:#231f20;fill-opacity:1;fill-rule:nonzero;stroke:none" d="m 123.226,59.0039 c 0,-0.6965 0.316,-0.9934 0.863,-0.9934 0.451,0 0.883,0.2805 1.429,0.9387 l 0.265,-0.5265 c -0.565,-1.0145 -1.694,-1.711 -2.729,-1.711 -1.276,0 -2.128,0.7168 -2.128,2.3321 l 0,4.5109 -0.994,0 0,0.493 c 1.128,0.4679 2.411,1.8418 2.747,2.8937 l 0.547,0 0,-2.3508 2.46,0 -0.28,-1.0359 -2.18,0 0,-4.5508" />
        <path inkscape:connector-curvature="0" id="path4236" style="fill:#231f20;fill-opacity:1;fill-rule:nonzero;stroke:none" d="m 131.876,56.9188 -5.23,0 0,0.6007 0.132,0 c 0.772,0 1.053,0.3379 1.053,1.3145 l 0,3.0664 c 0,0.8457 -0.112,1.0359 -0.675,1.2605 l -0.51,0.209 0,0.468 3.084,1.166 0.397,0 0,-2.1047 0.038,0 c 0.694,1.3535 0.996,1.8985 1.636,1.8985 0.129,0 0.282,-0.0196 0.374,-0.0555 l 1.486,-0.5469 c -0.225,-0.791 -0.526,-1.464 -0.898,-1.9922 -0.588,0.2266 -1.282,0.4696 -1.529,0.4696 -0.375,0 -0.692,-0.2645 -1.107,-0.8457 l 0,-3.0477 c 0,-0.9043 0.283,-1.2598 1.261,-1.2598 l 0.488,0 0,-0.6007" />
        <path inkscape:connector-curvature="0" id="path4238" style="fill:#231f20;fill-opacity:1;fill-rule:nonzero;stroke:none" d="m 139.418,61.5801 c -0.018,1.4492 -0.526,2.332 -1.337,2.332 -0.77,0 -1.463,-0.9933 -1.334,-2.332 l 2.671,0 z m 2.423,-2.4805 c -1.049,-1.4824 -2.574,-2.3879 -4.023,-2.3879 -2.05,0 -3.441,1.5793 -3.441,3.8547 0,2.4824 1.677,4.2313 4.023,4.2313 1,0 1.79,-0.3204 2.371,-0.9032 1.11,-1.1086 0.585,-2.1621 1.243,-2.5011 l 0,-0.545 -5.21,0 c 0.151,-1.5613 1.202,-2.7449 2.314,-2.7449 0.693,0 1.371,0.3926 2.296,1.3555 l 0.427,-0.3594" />
        <path inkscape:connector-curvature="0" id="path4240" style="fill:#231f20;fill-opacity:1;fill-rule:nonzero;stroke:none" d="m 150.926,58.7234 c -0.865,-1.3152 -2.183,-2.0117 -3.836,-2.0117 -2.294,0 -3.951,1.5625 -3.951,3.7246 0,2.4629 2.128,4.3614 4.87,4.3614 1.618,0 2.842,-0.6766 2.842,-1.5985 0,-0.5625 -0.375,-0.9414 -0.962,-0.9414 -1.312,0 -1.593,1.6746 -2.684,1.6746 -0.942,0 -1.584,-1.1465 -1.584,-2.8379 0,-2.032 0.962,-3.4043 2.352,-3.4043 0.849,0 1.636,0.4309 2.407,1.3352 l 0.546,-0.302" />
        <path inkscape:connector-curvature="0" id="path4242" style="fill:#231f20;fill-opacity:1;fill-rule:nonzero;stroke:none" d="m 155.005,58.8164 c 0,-1.1836 0.322,-1.2969 0.979,-1.2969 l 0.187,0 0,-0.6007 -4.76,0 0,0.6007 0.268,0 c 0.96,0 1.033,0.377 1.033,1.3739 l 0,8.2179 c 0,0.543 -0.095,0.6758 -0.602,0.8457 l -0.546,0.1875 0,0.4336 2.991,0.9207 0.45,0 0,-6.1289 c 1.055,0.7324 2.406,1.4278 3.384,1.4278 1.378,0 2.054,-1.1075 2.054,-3.327 l 0,-2.4855 c 0,-1.1102 0.129,-1.4657 0.846,-1.4657 l 0.184,0 0,-0.6007 -4.437,0 0,0.6007 0.151,0 c 0.789,0 0.96,0.3035 0.96,1.3739 l 0,2.839 c 0,1.0137 -0.471,1.6543 -1.222,1.6543 -0.51,0 -1.26,-0.2804 -1.92,-0.714 l 0,-3.8563" />
        <path inkscape:connector-curvature="0" id="path4244" style="fill:#231f20;fill-opacity:1;fill-rule:nonzero;stroke:none" d="m 165.577,59.0039 c 0,-0.6965 0.319,-0.9934 0.863,-0.9934 0.452,0 0.882,0.2805 1.431,0.9387 l 0.263,-0.5265 c -0.565,-1.0145 -1.694,-1.711 -2.728,-1.711 -1.279,0 -2.125,0.7168 -2.125,2.3321 l 0,4.5109 -0.995,0 0,0.493 c 1.129,0.4679 2.407,1.8418 2.743,2.8937 l 0.548,0 0,-2.3508 2.459,0 -0.277,-1.0359 -2.182,0 0,-4.5508" />
    </g>
</svg>
