<svg class="logo-ccl" xmlns="http://www.w3.org/2000/svg" xml:space="preserve" viewBox="0 0 278 207" version="1.1" y="0px" x="0px" xmlns:xlink="http://www.w3.org/1999/xlink">
<polygon points="107 177 107 0 133.5 0 133.5 177 133.5 207 107 207 -1.5 207 -1.5 177"/>
<polygon points="169.5 177 169.5 0 143 0 143 177 143 207 169.5 207 278 207 278 177"/>
<path d="m180.74 145.64c36.076-0.46 65.162-26.047 65.162-57.561 0-31.515-29.086-57.101-65.162-57.561v-28.517h0.001c52.61 0 95.26 37.901 95.26 84.655 0 46.752-42.648 84.655-95.261 84.655h-0.001v-25.67z"/>
<path d="m95.262 145.64c-36.077-0.46-65.162-26.04-65.162-57.556 0-31.515 29.085-57.101 65.162-57.561v-28.522h-0.001c-52.612 0-95.261 37.901-95.261 84.655 0 46.752 42.649 84.655 95.261 84.655h0.001v-25.67z"/>
</svg>
