<svg class="logo-gretel" xmlns="http://www.w3.org/2000/svg" xml:space="preserve" version="1.1" y="0px" x="0px" xmlns:xlink="http://www.w3.org/1999/xlink" viewBox="0 0 272 335">
  <style>.logo-gretel{height:100%;display:block;pointer-events:none}.logo-gretel path {fill:#7E6748}.logo-gretel circle {fill:rgba(168,205,40,0.78)}</style>
<path d="M126.989 253.208c0 0-0.535-32.833-11.246-38.457 -10.711-5.623-23.295-3.213-28.649-2.678 -5.356 0.536-21.957 3.215-31.06 8.57 0 0-1.606-3.749 1.071-4.553 0 0-10.443 1.874-22.759 0.268v-1.875c0 0 6.694 0.803 9.907-0.535 0 0-7.23-6.426-7.497-8.569 0 0 2.946 0.536 6.694 2.411 3.748 1.874 15.53 5.892 28.917 1.606 0 0-4.017-3.482 1.339-2.678 5.355 0.803 8.301 2.411 19.546 0.268 11.245-2.143 16.6-3.749 24.098-1.607 7.498 2.142 9.678 5.355 9.678 5.355s6.656-16.87-12.622-26.779c-19.278-9.909-38.825-11.248-48.732-21.423 -9.907-10.176-21.152-26.779-32.666-31.599 -11.513-4.82-24.901 0.268-26.24-2.678v-1.874c0 0 28.381-4.285 36.414 2.945 0 0 7.23-9.105-1.874-23.297l-0.536-3.213h2.41c0 0 5.623 7.231 6.159 19.549 0.535 12.318 1.606 16.335 8.032 23.565 6.426 7.23 19.814 26.78 36.682 20.888 0 0-3.748-10.444-16.868-19.816h3.748c0 0 3.749 4.285 10.175 4.285 0 0 3.748 16.603 20.884 23.03 17.135 6.427 16.868 1.607 18.475-1.606 1.606-3.214 6.693-23.298-8.836-41.24 -15.53-17.942-13.924-16.602-35.077-22.762 -21.152-6.159-29.452-5.088-30.791-11.783h1.874c0 0 4.552 2.678 7.229 2.678l-4.284-9.64h2.41c0 0 6.694 12.586 29.452 13.122L82.006 89.962l-0.268-4.016h2.142c0 0 6.693 8.837 15.529 14.46 8.836 5.624 16.333 10.712 20.35 15.532 4.016 4.82 5.891 9.908 9.104 10.176 3.213 0.268 0.267-24.1-6.962-34.277 -7.229-10.176-42.037-38.562-53.55-39.098 -11.514-0.535-12.05 2.143-12.317 1.339 -0.268-0.804 3.213-5.624-3.748-4.017 -6.962 1.607-8.032 4.017-9.371 1.607 -1.339-2.41 4.819-4.285 10.174-5.356 5.355-1.071 17.939 1.874 19.01 2.41L69.664 43.1h2.436c0 0 10.175 9.908 17.94 13.925 7.764 4.017 19.813 9.372 23.829 13.657 4.016 4.285 10.175 11.248 12.852 9.908 2.678-1.339-6.961-14.996-14.994-20.352l-0.268-1.339 3.749-0.536 0.535-6.427h2.141c0 0 1.339 8.837 6.426 14.728 5.088 5.892 7.498 12.051 11.782 8.301 4.284-3.749 15.529-14.996 17.404-27.85l1.874 0.268v2.945c0 0 12.049-6.963 16.601-4.82 0 0-24.634 17.942-29.185 29.189 -4.552 11.247-7.765 24.369-5.355 24.904 2.41 0.535 14.459-17.139 14.459-17.139l2.677-0.268c0 0 0.268 1.339 0.268 2.142 0 0.803-14.19 18.745-14.19 28.118 0 9.373 0.535 26.512 3.48 29.993 2.946 3.481 4.82 3.213 8.836-4.553 4.016-7.766 8.835-14.996 14.726-21.155 5.891-6.159 14.727-16.067 19.814-26.511 5.087-10.444 14.458-32.135 14.458-32.135l2.41 0.536c0 0-6.962 17.674-3.213 19.281 3.749 1.607 3.749 1.607 3.749 1.607v2.41c0 0-12.05 5.891-16.334 12.586 -4.283 6.695-9.104 14.193-5.623 13.39 3.481-0.803 16.065-9.908 24.098-12.318 8.032-2.41 15.529-3.481 20.081-9.64l1.339 1.607v1.875l-3.481 3.481c0 0 5.891 1.339 12.852 0.268 6.961-1.071 0 2.41 0 2.41s-26.776 2.946-39.895 9.909c-13.12 6.962-25.973 14.193-33.47 26.511 -7.496 12.318-14.191 28.173-13.655 34.439 0.536 6.265 3.213 5.785 9.372 0 6.158-5.786 12.584-6.321 15.797-9.803 3.213-3.481 5.623-18.477 9.103-20.887 3.481-2.41 4.552-1.875 4.552-1.875s0.535 0.803-0.268 2.41c-0.803 1.607-6.694 9.908-6.426 13.657 0.268 3.749 0.268 5.624 5.623 3.213 5.356-2.41 21.153-8.569 21.153-8.569s-1.072 3.481 1.874 4.017c2.945 0.536 19.813-6.159 27.578-9.372 7.765-3.213 18.208-10.98 22.224-20.62l4.552 1.875c0 0-10.442 11.247-14.459 16.335 -4.016 5.088-1.338 3.749 3.213 2.946 4.551-0.803 13.655-5.623 13.655-5.623l1.406 2.544c0 0-14.057 7.23-19.346 8.971 -2.303 0.758 2.945 2.678 1.339 4.017 -1.607 1.339-2.41-2.946-25.705 0.803 -23.294 3.749-51.141 15.588-45.785 15.962 5.355 0.373 19.814-3.911 19.814-3.911s2.41 0.592 0.268 3.911c-2.143 3.319 2.678 0.641 1.339 3.587 -1.339 2.946-8.836-2.41-13.655-1.874 -4.82 0.536-24.099 0.803-34.006 18.477 -9.907 17.674-1.339 38.561-0.803 49.54 0.536 10.98 1.758 31.525 3.749 54.361 1.991 22.835 20.862 37.956 20.862 37.956 -25.748 8.033-50.24 7.99-77.462 0 1.168-0.308 19.891-16.122 22.628-39.242C125.576 271.829 125.466 273.042 126.989 253.208z"/>
  <circle cx="138" cy="136" r="136"/>
</svg>
